<svg xmlns="http://www.w3.org/2000/svg" viewBox="0 0 960 620" font-family="Segoe UI,Arial,sans-serif"><rect width="960" height="620" rx="16" fill="#0d1117"/><text x="36" y="46" fill="#e6edf3" font-size="24">Universal Head Swap</text><text x="36" y="74" fill="#8b949e" font-size="14">Setup first. Advanced controls in focused tabs. Layout illustration.</text>
<rect x="30" y="96" width="144" height="42" rx="7" fill="#1f6feb"/><text x="102" y="123" text-anchor="middle" fill="#ffffff" font-size="13">Setup</text>
<rect x="180" y="96" width="144" height="42" rx="7" fill="#21262d"/><text x="252" y="123" text-anchor="middle" fill="#ffffff" font-size="13">Appearance</text>
<rect x="330" y="96" width="144" height="42" rx="7" fill="#21262d"/><text x="402" y="123" text-anchor="middle" fill="#ffffff" font-size="13">Quality &amp; mask</text>
<rect x="480" y="96" width="144" height="42" rx="7" fill="#21262d"/><text x="552" y="123" text-anchor="middle" fill="#ffffff" font-size="13">Speed &amp; memory</text>
<rect x="630" y="96" width="144" height="42" rx="7" fill="#21262d"/><text x="702" y="123" text-anchor="middle" fill="#ffffff" font-size="13">Saved setups</text>
<rect x="780" y="96" width="144" height="42" rx="7" fill="#21262d"/><text x="852" y="123" text-anchor="middle" fill="#ffffff" font-size="13">Report</text>
<rect x="30" y="165" width="900" height="76" rx="9" fill="#161b22" stroke="#30363d"/><text x="50" y="192" fill="#e6edf3" font-size="16">Head-swap LoRA (BFS)</text><text x="50" y="219" fill="#8b949e" font-size="14">Auto matches Qwen 2.1 / Klein 4B / Klein 9B</text>
<rect x="30" y="255" width="900" height="76" rx="9" fill="#161b22" stroke="#30363d"/><text x="50" y="282" fill="#e6edf3" font-size="16">Character LoRA (optional)</text><text x="50" y="309" fill="#8b949e" font-size="14">Select a character LoRA and its strength</text>
<rect x="30" y="345" width="900" height="76" rx="9" fill="#161b22" stroke="#30363d"/><text x="50" y="372" fill="#e6edf3" font-size="16">Editing mode</text><text x="50" y="399" fill="#8b949e" font-size="14">Whole picture or protected head only</text>
<rect x="30" y="435" width="900" height="76" rx="9" fill="#161b22" stroke="#30363d"/><text x="50" y="462" fill="#e6edf3" font-size="16">Reference headshots</text><text x="50" y="489" fill="#8b949e" font-size="14">Drop up to 20 images here</text>
<text x="36" y="558" fill="#58a6ff" font-size="16">Check setup · preview selected headshot and edit area</text><text x="36" y="588" fill="#8b949e" font-size="14">Use Forge Generate to run. Existing advanced features remain available.</text></svg>